Coordinates
version=1
nRows=7
nColumns=38
inDegrees=yes

Units are S.I. units (second, meters, Newtons, ...)
Angles are in degrees.

endheader
time	pelvis_tilt	pelvis_list	pelvis_rotation	pelvis_tx	pelvis_ty	pelvis_tz	hip_flexion_r	hip_adduction_r	hip_rotation_r	knee_angle_r	ankle_angle_r	subtalar_angle_r	mtp_angle_r	hip_flexion_l	hip_adduction_l	hip_rotation_l	knee_angle_l	ankle_angle_l	subtalar_angle_l	mtp_angle_l	lumbar_extension	lumbar_bending	lumbar_rotation	arm_flex_r	arm_add_r	arm_rot_r	elbow_flex_r	pro_sup_r	wrist_flex_r	wrist_dev_r	arm_flex_l	arm_add_l	arm_rot_l	elbow_flex_l	pro_sup_l	wrist_flex_l	wrist_dev_l
      1.69000000	      0.51784008	     -3.00801350	      2.14995469	      0.35776445	      0.98702856	     -0.23634012	     -2.59813397	      9.13011009	      1.19148102	     -5.31523170	      3.25127261	    -12.02949490	      0.00000000	     26.62050237	     -5.37825747	     -7.69428101	    -49.99707408	      1.63647878	    -13.43494528	      0.00000000	    -10.01307441	      3.10660920	      1.04335579	      0.82115407	    -14.09750813	     28.38206189	     45.14945763	     43.12588354	      0.00000000	      0.00000000	     -2.39434486	     -9.07100554	     38.01953362	     30.20549552	     43.12588354	      0.00000000	      0.00000000
      1.70000000	      0.43813971	     -3.07071299	      1.55739544	      0.37001301	      0.98532745	     -0.23546465	     -3.06150215	      9.29877451	      1.55776246	     -5.79051569	      4.04975383	    -12.43498674	      0.00000000	     27.19141027	     -5.31568259	     -8.14433116	    -47.05837118	      1.88779782	    -13.14293803	      0.00000000	    -10.05184959	      3.08303188	      1.58638944	      1.85635472	    -14.32325946	     28.21981220	     45.58607429	     43.13976849	      0.00000000	      0.00000000	     -3.18751157	     -9.13551766	     38.07491866	     30.00447431	     43.13976849	      0.00000000	      0.00000000
      1.71000000	      0.48905921	     -3.10982843	      1.02922776	      0.38235790	      0.98361536	     -0.23472161	     -3.69359885	      9.44407503	      2.19114905	     -6.24573222	      4.89418427	    -12.99232655	      0.00000000	     27.52904216	     -5.21789521	     -8.57965560	    -43.93486877	      2.08672635	    -12.63783526	      0.00000000	    -10.25842670	      3.04359996	      2.06890865	      2.87466545	    -14.58297327	     28.08228388	     46.27045850	     43.15548977	      0.00000000	      0.00000000	     -3.95113563	     -9.21333172	     38.11174918	     29.78240727	     43.15548977	      0.00000000	      0.00000000
      1.72000000	      0.51272340	     -3.18619195	      0.45277748	      0.39464096	      0.98163135	     -0.23390023	     -4.54078053	      9.64477659	      3.78440046	     -6.28104708	      5.25669130	    -14.75045203	      0.00000000	     27.60190548	     -5.03454978	     -8.45611527	    -40.42950881	      2.63714098	    -11.48685924	      0.00000000	    -10.47436270	      3.04002808	      2.66531171	      3.16365031	    -15.26530257	     27.61001472	     49.29801414	     43.25805784	      0.00000000	      0.00000000	     -4.53866638	     -9.22859600	     38.06641257	     29.37574416	     43.25805784	      0.00000000	      0.00000000
      1.73000000	      0.56210025	     -3.18444385	     -0.07624089	      0.40700785	      0.97962473	     -0.23315986	     -5.15229127	      9.70680867	      4.25233183	     -6.93785743	      6.37057900	    -14.88466472	      0.00000000	     27.98359226	     -5.06699986	     -9.54832310	    -37.23820216	      1.74209560	    -11.07548481	      0.00000000	    -10.70605747	      2.94033346	      3.10316727	      4.18710605	    -15.42997459	     27.31354203	     49.87765228	     43.27316706	      0.00000000	      0.00000000	     -5.29286154	     -9.33619731	     38.07897302	     29.14232518	     43.27316706	      0.00000000	      0.00000000
      1.74000000	      0.66722108	     -3.21599395	     -0.49624639	      0.41954294	      0.97746376	     -0.23272229	     -5.86789925	      9.75350621	      4.78248702	     -7.54063829	      7.63288735	    -14.83555932	      0.00000000	     27.83806666	     -4.80924785	     -9.34071915	    -33.55590396	      1.73041323	     -9.65764316	      0.00000000	    -11.01066572	      2.92270282	      3.60429291	      4.08922014	    -15.76021515	     25.24861046	     53.39807298	     43.44670470	      0.00000000	      0.00000000	     -5.81604173	     -9.28595921	     37.87219707	     28.67164685	     43.44670470	      0.00000000	      0.00000000
      1.75000000	      0.69508443	     -3.32367719	     -0.86201624	      0.43225448	      0.97516551	     -0.23235035	     -6.62450832	      9.85679901	      5.28981080	     -7.85945256	      8.56749965	    -14.92161037	      0.00000000	     27.87014136	     -4.70539940	     -9.46920612	    -30.00241145	      1.18463900	     -8.61076741	      0.00000000	    -11.16807604	      2.98516566	      3.92181453	      5.04463695	    -15.96980792	     25.02649143	     53.79495605	     43.45538306	      0.00000000	      0.00000000	     -6.50139657	     -9.31068168	     37.91747133	     28.50537178	     43.45538306	      0.00000000	      0.00000000
